<svg xmlns="http://www.w3.org/2000/svg" width="202" height="36" viewBox="0 0 202 36" fill="none"><path fill-rule="evenodd" clip-rule="evenodd" d="M194.323 11.6403H191.877V15.8526H187.393V0H194.64C196.074 0 197.32 0.241563 198.377 0.72469C199.433 1.19272 200.249 1.87212 200.822 2.76288C201.396 3.63855 201.683 4.67274 201.683 5.86546C201.683 7.01288 201.411 8.01688 200.868 8.87745C200.339 9.72292 199.577 10.3872 198.58 10.8703L202 15.8526H197.199L194.323 11.6403ZM197.154 5.86546C197.154 5.12567 196.92 4.55196 196.452 4.14432C195.984 3.73668 195.289 3.53286 194.368 3.53286H191.877V8.17541H194.368C195.289 8.17541 195.984 7.97914 196.452 7.5866C196.92 7.17896 197.154 6.60525 197.154 5.86546ZM47.9957 35.1172C44.5294 35.1172 41.4098 34.3925 38.6369 32.9429C35.8954 31.4619 33.7369 29.4137 32.1613 26.7983C30.5858 24.1828 29.798 21.2208 29.798 17.9121C29.798 14.6035 30.5858 11.6414 32.1613 9.02598C33.7369 6.41055 35.8954 4.37808 38.6369 2.92857C41.4098 1.44754 44.5294 0.707031 47.9957 0.707031C51.0207 0.707031 53.7465 1.24272 56.1728 2.3141C58.5992 3.38548 60.6159 4.92953 62.223 6.94624L56.2673 12.3347C54.1246 9.75074 51.5249 8.45878 48.4683 8.45878C46.6722 8.45878 45.0651 8.85267 43.6471 9.64045C42.2606 10.4282 41.1735 11.5469 40.3857 12.9964C39.6295 14.4144 39.2513 16.053 39.2513 17.9121C39.2513 19.7713 39.6295 21.4256 40.3857 22.8751C41.1735 24.2931 42.2606 25.396 43.6471 26.1838C45.0651 26.9716 46.6722 27.3655 48.4683 27.3655C51.5249 27.3655 54.1246 26.0735 56.2673 23.4896L62.223 28.878C60.6159 30.8947 58.5992 32.4388 56.1728 33.5102C53.7465 34.5815 51.0207 35.1172 47.9957 35.1172ZM153.053 35.1172C149.587 35.1172 146.468 34.3925 143.695 32.9429C140.953 31.4619 138.795 29.4137 137.219 26.7983C135.643 24.1828 134.856 21.2208 134.856 17.9121C134.856 14.6035 135.643 11.6414 137.219 9.02598C138.795 6.41055 140.953 4.37808 143.695 2.92857C146.468 1.44754 149.587 0.707031 153.053 0.707031C156.078 0.707031 158.804 1.24272 161.231 2.3141C163.657 3.38548 165.674 4.92953 167.281 6.94624L161.325 12.3347C159.182 9.75074 156.583 8.45878 153.526 8.45878C151.73 8.45878 150.123 8.85267 148.705 9.64045C147.318 10.4282 146.231 11.5469 145.443 12.9964C144.687 14.4144 144.309 16.053 144.309 17.9121C144.309 19.7713 144.687 21.4256 145.443 22.8751C146.231 24.2931 147.318 25.396 148.705 26.1838C150.123 26.9716 151.73 27.3655 153.526 27.3655C156.583 27.3655 159.182 26.0735 161.325 23.4896L167.281 28.878C165.674 30.8947 163.657 32.4388 161.231 33.5102C158.804 34.5815 156.078 35.1172 153.053 35.1172ZM129.826 1.3689V34.4556H120.467V21.5518H107.705V34.4556H98.3466V1.3689H107.705V13.8001H120.467V1.3689H129.826ZM93.0146 34.4556V27.2238H75.715V21.1737H90.4149V14.1782H75.715V8.60071H92.4001V1.3689H66.4507V34.4556H93.0146ZM23.8697 16.2579C21.6639 14.3672 18.245 13.4219 13.6128 13.4219H11.3913L11.8167 8.60071H25.1459V1.3689H4.06494L2.4106 20.701H11.3913C13.7861 20.701 15.4562 20.9846 16.4016 21.5518C17.3469 22.119 17.8196 22.954 17.8196 24.0569C17.8196 25.1598 17.3311 26.0264 16.3543 26.6566C15.409 27.2553 14.1328 27.5547 12.5257 27.5547C10.9186 27.5547 9.31155 27.3183 7.70448 26.8457C6.12892 26.373 4.67941 25.6955 3.35594 24.8132L0 31.8559C1.63858 32.8958 3.59227 33.6993 5.86107 34.2665C8.16139 34.8337 10.4775 35.1173 12.8093 35.1173C15.9919 35.1173 18.6546 34.6132 20.7974 33.6048C22.9716 32.5649 24.5787 31.1942 25.6186 29.4926C26.69 27.7595 27.2256 25.8688 27.2256 23.8206C27.2256 20.6695 26.107 18.1486 23.8697 16.2579ZM173.508 12.7727H180.211L181.457 15.8526H186.122L179.101 0H174.685L167.688 15.8526H172.262L173.508 12.7727ZM176.859 4.39343L178.898 9.46626H174.821L176.859 4.39343Z" fill="#FE6A01"></path></svg>